<svg id="visual" viewBox="0 0 900 600" width="900" height="600" xmlns="http://www.w3.org/2000/svg" xmlns:xlink="http://www.w3.org/1999/xlink" version="1.1"><rect x="0" y="0" width="900" height="600" fill="#001220"></rect><defs><linearGradient id="grad1_0" x1="33.3%" y1="100%" x2="100%" y2="0%"><stop offset="20%" stop-color="#001220" stop-opacity="1"></stop><stop offset="80%" stop-color="#001220" stop-opacity="1"></stop></linearGradient></defs><defs><linearGradient id="grad2_0" x1="0%" y1="100%" x2="66.7%" y2="0%"><stop offset="20%" stop-color="#001220" stop-opacity="1"></stop><stop offset="80%" stop-color="#001220" stop-opacity="1"></stop></linearGradient></defs><g transform="translate(900, 600)"><path d="M-472 0C-453.3 -55.1 -434.7 -110.1 -418.5 -173.4C-402.4 -236.6 -388.8 -308.1 -344.2 -344.2C-299.6 -380.3 -224 -381.1 -161.5 -389.9C-99 -398.6 -49.5 -415.3 0 -432L0 0Z" fill="#FBAE3C"></path></g><g transform="translate(0, 0)"><path d="M407 0C421.4 60.1 435.7 120.1 417.6 173C399.4 225.8 348.8 271.4 299.1 299.1C249.5 326.8 200.8 336.6 151.2 364.9C101.5 393.2 50.7 440 0 486.7L0 0Z" fill="#FBAE3C"></path></g></svg>