<svg id="visual" viewBox="0 0 900 600" width="900" height="600" xmlns="http://www.w3.org/2000/svg" xmlns:xlink="http://www.w3.org/1999/xlink" version="1.1"><rect x="0" y="0" width="900" height="600" fill="#001220"></rect><defs><linearGradient id="grad1_0" x1="33.3%" y1="0%" x2="100%" y2="100%"><stop offset="20%" stop-color="#001220" stop-opacity="1"></stop><stop offset="80%" stop-color="#001220" stop-opacity="1"></stop></linearGradient></defs><defs><linearGradient id="grad2_0" x1="0%" y1="0%" x2="66.7%" y2="100%"><stop offset="20%" stop-color="#001220" stop-opacity="1"></stop><stop offset="80%" stop-color="#001220" stop-opacity="1"></stop></linearGradient></defs><g transform="translate(900, 0)"><path d="M0 470C-57.9 451.4 -115.8 432.8 -169.5 409.3C-223.3 385.8 -272.8 357.4 -320.3 320.3C-367.8 283.2 -413.3 237.4 -440.7 182.5C-468.1 127.7 -477.4 63.8 -486.7 0L0 0Z" fill="#FBAE3C"></path></g><g transform="translate(0, 600)"><path d="M0 -457C47.6 -425.5 95.1 -394.1 158.4 -382.5C221.7 -370.9 300.7 -379.2 344.2 -344.2C387.7 -309.1 395.6 -230.7 401 -166.1C406.3 -101.5 409.2 -50.7 412 0L0 0Z" fill="#FBAE3C"></path></g></svg>