<svg id="visual" viewBox="0 0 900 600" width="900" height="600" xmlns="http://www.w3.org/2000/svg" xmlns:xlink="http://www.w3.org/1999/xlink" version="1.1"><rect x="0" y="0" width="900" height="600" fill="#001220"></rect><defs><linearGradient id="grad1_0" x1="33.3%" y1="100%" x2="100%" y2="0%"><stop offset="20%" stop-color="#001220" stop-opacity="1"></stop><stop offset="80%" stop-color="#001220" stop-opacity="1"></stop></linearGradient></defs><defs><linearGradient id="grad2_0" x1="0%" y1="100%" x2="66.7%" y2="0%"><stop offset="20%" stop-color="#001220" stop-opacity="1"></stop><stop offset="80%" stop-color="#001220" stop-opacity="1"></stop></linearGradient></defs><g transform="translate(900, 600)"><path d="M-447 0C-408.4 -43.7 -369.8 -87.4 -360.3 -149.2C-350.8 -211.1 -370.4 -291 -344.2 -344.2C-318 -397.4 -246 -423.8 -181 -437C-116 -450.2 -58 -450.1 0 -450L0 0Z" fill="#FBAE3C"></path></g><g transform="translate(0, 0)"><path d="M486.7 0C479.9 66.1 473.1 132.2 438.8 181.8C404.6 231.3 343.1 264.3 291.3 291.3C239.6 318.4 197.7 339.5 150.8 364C103.9 388.5 51.9 416.2 0 444L0 0Z" fill="#FBAE3C"></path></g></svg>