<svg id="visual" viewBox="0 0 900 600" width="900" height="600" xmlns="http://www.w3.org/2000/svg" xmlns:xlink="http://www.w3.org/1999/xlink" version="1.1"><rect x="0" y="0" width="900" height="600" fill="#001122"></rect><defs><linearGradient id="grad1_0" x1="33.3%" y1="0%" x2="100%" y2="100%"><stop offset="20%" stop-color="#001122" stop-opacity="1"></stop><stop offset="80%" stop-color="#001122" stop-opacity="1"></stop></linearGradient></defs><defs><linearGradient id="grad2_0" x1="0%" y1="0%" x2="66.7%" y2="100%"><stop offset="20%" stop-color="#001122" stop-opacity="1"></stop><stop offset="80%" stop-color="#001122" stop-opacity="1"></stop></linearGradient></defs><g transform="translate(900, 0)"><path d="M0 486.7C-42.3 432.5 -84.5 378.2 -150.8 364C-217 349.8 -307.2 375.6 -344.2 344.2C-381.1 312.8 -364.8 224.2 -379.7 157.3C-394.6 90.4 -440.7 45.2 -486.7 0L0 0Z" fill="#FBAE3C"></path></g><g transform="translate(0, 600)"><path d="M0 -486.7C63.7 -480.5 127.4 -474.2 186.3 -449.7C245.1 -425.2 299.2 -382.6 331.6 -331.6C364.1 -280.6 375 -221.2 397.3 -164.6C419.5 -107.9 453.1 -53.9 486.7 0L0 0Z" fill="#FBAE3C"></path></g></svg>