<?xml version="1.0" ?><svg viewBox="0 0 100 100" xmlns="http://www.w3.org/2000/svg"><rect height="46.264" rx="0.771" style="fill:#00ce7c" width="92.527" x="3.737" y="19.466"/><path d="M13.288,60.793H86.713a4.941,4.941,0,0,1,4.615-4.62V29.017A4.939,4.939,0,0,1,86.713,24.4H13.288a4.944,4.944,0,0,1-4.617,4.62V56.178A4.941,4.941,0,0,1,13.288,60.793ZM80.225,37.975A4.627,4.627,0,1,1,75.6,42.6,4.627,4.627,0,0,1,80.225,37.975Zm-60.451,0A4.627,4.627,0,1,1,15.148,42.6,4.627,4.627,0,0,1,19.774,37.975Z" style="fill:#00ac69"/><path d="M96.26,64.959a.767.767,0,0,1-.767.771H4.508a.771.771,0,0,1-.771-.771l0,14.8a.771.771,0,0,0,.771.77H95.5a.771.771,0,0,0,.771-.771Z" style="fill:#00ac69"/><rect height="14.805" style="fill:#b7c7d3" width="36.394" x="31.8" y="65.73"/><rect height="46.264" style="fill:#dce3eb" width="36.394" x="31.8" y="19.466"/><path d="M95.493,66.963H4.507a2.007,2.007,0,0,1-2-2V20.237a2.006,2.006,0,0,1,2-2H95.493a2.006,2.006,0,0,1,2,2V64.958A2.007,2.007,0,0,1,95.493,66.963ZM4.97,64.5H95.03V20.7H4.97ZM95.493,20.7h0Z" style="fill:#101820"/><path d="M30.874,62.027H13.287a1.235,1.235,0,0,1-1.232-1.158,3.7,3.7,0,0,0-3.46-3.46,1.233,1.233,0,0,1-1.157-1.231V29.021A1.233,1.233,0,0,1,8.6,27.79a3.7,3.7,0,0,0,3.46-3.465,1.235,1.235,0,0,1,1.232-1.158H30.874a1.234,1.234,0,0,1,0,2.467H14.335A6.186,6.186,0,0,1,9.9,30.069v25.06a6.184,6.184,0,0,1,4.43,4.431H30.874a1.234,1.234,0,0,1,0,2.467Z" style="fill:#101820"/><path d="M86.713,62.027H69.123a1.234,1.234,0,1,1,0-2.467H85.665a6.181,6.181,0,0,1,4.43-4.435V30.065a6.177,6.177,0,0,1-4.43-4.429H69.123a1.234,1.234,0,1,1,0-2.467h17.59a1.235,1.235,0,0,1,1.232,1.157,3.7,3.7,0,0,0,3.46,3.46,1.233,1.233,0,0,1,1.157,1.231V56.174a1.233,1.233,0,0,1-1.157,1.231,3.7,3.7,0,0,0-3.46,3.464A1.234,1.234,0,0,1,86.713,62.027Z" style="fill:#101820"/><path d="M80.225,48.461A5.86,5.86,0,1,1,86.086,42.6,5.866,5.866,0,0,1,80.225,48.461Zm0-9.253A3.393,3.393,0,1,0,83.619,42.6,3.4,3.4,0,0,0,80.225,39.208Z" style="fill:#101820"/><path d="M19.775,48.461a5.86,5.86,0,1,1,5.86-5.861A5.866,5.866,0,0,1,19.775,48.461Zm0-9.253A3.393,3.393,0,1,0,23.168,42.6,3.4,3.4,0,0,0,19.775,39.208Z" style="fill:#101820"/><path d="M95.5,81.768H4.51a2.006,2.006,0,0,1-2-2L2.5,64.96a1.233,1.233,0,0,1,1.233-1.235h0a1.234,1.234,0,0,1,1.234,1.233L4.973,79.3h90.06L95.027,64.96a1.234,1.234,0,0,1,1.234-1.235h0a1.234,1.234,0,0,1,1.233,1.233L97.5,79.763A2.006,2.006,0,0,1,95.5,81.768Z" style="fill:#101820"/><path d="M30.874,71.9H3.739a1.233,1.233,0,1,1,0-2.466H30.874a1.233,1.233,0,0,1,0,2.466Z" style="fill:#101820"/><path d="M96.267,71.9H69.123a1.233,1.233,0,1,1,0-2.466H96.267a1.233,1.233,0,1,1,0,2.466Z" style="fill:#101820"/><path d="M96.267,76.833H69.123a1.234,1.234,0,1,1,0-2.467H96.267a1.234,1.234,0,0,1,0,2.467Z" style="fill:#101820"/><path d="M30.874,76.833H3.739a1.234,1.234,0,0,1,0-2.467H30.874a1.234,1.234,0,0,1,0,2.467Z" style="fill:#101820"/><path d="M69.123,81.768a1.234,1.234,0,0,1-1.234-1.234V19.466a1.234,1.234,0,0,1,2.467,0V80.534A1.233,1.233,0,0,1,69.123,81.768Z" style="fill:#101820"/><path d="M30.874,81.768a1.233,1.233,0,0,1-1.233-1.234V19.466a1.233,1.233,0,1,1,2.466,0V80.534A1.233,1.233,0,0,1,30.874,81.768Z" style="fill:#101820"/><path d="M49.691,53.083a9.232,9.232,0,0,1-6.813-3.1,1.234,1.234,0,0,1,1.907-1.567,6.727,6.727,0,0,0,4.906,2.2c3.333,0,5.244-1.237,5.244-3.393,0-1.768-1.379-2.781-5.09-3.74-1.563-.405-6.321-1.636-6.321-5.821,0-3.477,2.652-5.552,7.093-5.552A9.884,9.884,0,0,1,57,34.677a1.233,1.233,0,1,1-1.665,1.82,7.375,7.375,0,0,0-4.719-1.919c-3.069,0-4.626,1.038-4.626,3.085,0,.622,0,2.275,4.471,3.432,2.253.582,6.94,1.794,6.94,6.129C57.4,50.056,55.376,53.083,49.691,53.083Z" style="fill:#101820"/><path d="M50,56.168a1.233,1.233,0,0,1-1.233-1.234V30.26a1.233,1.233,0,1,1,2.466,0V54.934A1.233,1.233,0,0,1,50,56.168Z" style="fill:#101820"/></svg>