<svg id="visual" viewBox="0 0 900 600" width="900" height="600" xmlns="http://www.w3.org/2000/svg" xmlns:xlink="http://www.w3.org/1999/xlink" version="1.1"><rect x="0" y="0" width="900" height="600" fill="#000"></rect><defs><linearGradient id="grad1_0" x1="33.3%" y1="0%" x2="100%" y2="100%"><stop offset="20%" stop-color="#000000" stop-opacity="1"></stop><stop offset="80%" stop-color="#000000" stop-opacity="1"></stop></linearGradient></defs><defs><linearGradient id="grad2_0" x1="0%" y1="0%" x2="66.7%" y2="100%"><stop offset="20%" stop-color="#000000" stop-opacity="1"></stop><stop offset="80%" stop-color="#000000" stop-opacity="1"></stop></linearGradient></defs><g transform="translate(900, 0)"><path d="M0 486.7C-43.8 432.3 -87.6 377.9 -150 362.2C-212.4 346.5 -293.4 369.5 -344.2 344.2C-395 318.9 -415.5 245.3 -434.2 179.9C-452.9 114.4 -469.8 57.2 -486.7 0L0 0Z" fill="#F1842A"></path></g><g transform="translate(0, 600)"><path d="M0 -486.7C70.2 -487.1 140.5 -487.4 186.3 -449.7C232.1 -412 253.4 -336.4 285 -285C316.5 -233.6 358.2 -206.5 393.6 -163C428.9 -119.6 457.8 -59.8 486.7 0L0 0Z" fill="#F1842A"></path></g></svg>